<?xml version="1.0" standalone="no"?>
<!DOCTYPE svg PUBLIC "-//W3C//DTD SVG 20010904//EN"
 "http://www.w3.org/TR/2001/REC-SVG-20010904/DTD/svg10.dtd">
<svg version="1.0" xmlns="http://www.w3.org/2000/svg"
 width="600.000000pt" height="600.000000pt" viewBox="0 0 60.000000 60.000000"
 preserveAspectRatio="xMidYMid meet">

<g transform="translate(0.000000,60.000000) scale(0.100000,-0.100000)"
fill="#000000" stroke="none">
<path d="M0 300 l0 -300 300 0 300 0 0 300 0 300 -300 0 -300 0 0 -300z m590
0 l0 -290 -290 0 -290 0 0 290 0 290 290 0 290 0 0 -290z"/>
<path d="M197 293 l-116 -178 115 -3 c63 -1 164 -1 224 0 l110 3 -104 173
c-56 95 -105 175 -108 177 -3 3 -57 -74 -121 -172z m210 -100 c4 -10 -20 -13
-102 -13 -59 0 -105 4 -103 8 2 5 28 43 58 84 l54 75 44 -71 c24 -39 46 -77
49 -83z"/>
</g>
</svg>
