<?xml version="1.0" standalone="no"?>
<!DOCTYPE svg PUBLIC "-//W3C//DTD SVG 20010904//EN"
 "http://www.w3.org/TR/2001/REC-SVG-20010904/DTD/svg10.dtd">
<svg version="1.0" xmlns="http://www.w3.org/2000/svg"
 width="31.000000pt" height="51.000000pt" viewBox="0 0 31.000000 51.000000"
 preserveAspectRatio="xMidYMid meet">

<g transform="translate(0.000000,51.000000) scale(0.100000,-0.100000)"
fill="#000000" stroke="none">
<path d="M185 505 c-5 -2 -49 -15 -97 -29 l-88 -27 0 -38 c0 -35 3 -40 40 -56
l40 -18 0 -132 0 -132 43 -17 c42 -16 46 -15 95 5 l52 22 0 169 c0 164 -1 171
-26 214 -24 41 -34 47 -59 39z m53 -45 c20 -36 22 -51 22 -205 l0 -166 -46
-19 c-25 -11 -48 -20 -50 -20 -2 0 -4 78 -4 174 0 132 -4 182 -15 209 -19 47
-20 45 18 56 49 14 50 14 75 -29z m-89 -227 c1 -95 -1 -173 -3 -173 -3 0 -16
4 -30 10 l-26 10 0 130 0 130 -40 20 c-33 17 -40 26 -40 49 0 24 6 31 41 45
45 18 53 17 43 -7 -4 -12 -15 -15 -37 -12 l-32 5 30 -10 c24 -8 32 -7 43 7 6
9 12 24 13 32 0 9 9 -2 19 -24 16 -34 19 -67 19 -212z"/>
<path d="M203 399 c-26 -8 -33 -15 -33 -36 0 -23 3 -25 31 -19 17 3 35 6 40 6
5 0 9 14 9 30 0 33 0 33 -47 19z m35 -34 c-2 -2 -16 -7 -32 -11 -24 -6 -27 -4
-24 12 4 23 51 36 56 16 2 -7 2 -15 0 -17z"/>
<path d="M203 319 c-32 -9 -33 -11 -33 -65 0 -60 -5 -57 60 -38 17 4 20 14 20
60 0 30 -3 54 -7 53 -5 0 -23 -5 -40 -10z m33 -84 c-2 -7 -16 -15 -31 -17 -25
-5 -26 -4 -23 40 3 40 6 47 28 52 23 5 25 3 28 -28 2 -19 1 -40 -2 -47z"/>
<path d="M203 189 c-32 -9 -33 -11 -33 -65 0 -60 -5 -57 60 -38 17 4 20 14 20
60 0 30 -3 54 -7 53 -5 0 -23 -5 -40 -10z m33 -84 c-2 -7 -16 -15 -31 -17 -25
-5 -26 -4 -23 40 3 40 6 47 28 52 23 5 25 3 28 -28 2 -19 1 -40 -2 -47z"/>
</g>
</svg>
