<?xml version="1.0" standalone="no"?>
<!DOCTYPE svg PUBLIC "-//W3C//DTD SVG 20010904//EN"
 "http://www.w3.org/TR/2001/REC-SVG-20010904/DTD/svg10.dtd">
<svg version="1.0" xmlns="http://www.w3.org/2000/svg"
 width="40.000000pt" height="60.000000pt" viewBox="0 0 40.000000 60.000000"
 preserveAspectRatio="xMidYMid meet">

<g transform="translate(0.000000,60.000000) scale(0.100000,-0.100000)"
fill="#000000" stroke="none">
<path d="M0 300 l0 -300 200 0 200 0 0 300 0 300 -200 0 -200 0 0 -300z m390
0 l0 -290 -190 0 -190 0 0 290 0 290 190 0 190 0 0 -290z"/>
<path d="M138 488 l-98 -40 0 -169 0 -169 49 -25 49 -24 111 40 111 41 0 169
0 169 -50 25 c-27 14 -55 25 -62 24 -7 0 -57 -19 -110 -41z m136 19 c15 -11 5
-17 -75 -46 -57 -20 -101 -31 -118 -27 -14 3 -20 3 -13 0 13 -6 16 -32 6 -58
-12 -31 -24 -16 -21 26 l3 42 89 37 c104 43 105 43 129 26z m57 -27 c25 -14
28 -90 3 -90 -18 0 -74 31 -74 41 0 3 18 11 41 18 23 7 39 15 36 17 -2 3 -46
-11 -97 -30 -51 -19 -98 -32 -106 -29 -9 3 -12 -1 -10 -14 3 -13 -2 -19 -15
-20 -34 -3 -21 31 19 49 43 20 163 66 175 67 5 1 17 -4 28 -9z m-36 -86 c11
-8 28 -14 39 -14 20 0 20 0 0 -15 -10 -8 -28 -15 -40 -15 -11 0 -49 -11 -84
-25 -35 -14 -65 -25 -67 -25 -2 0 -3 15 -3 34 0 32 3 35 50 52 27 10 48 20 45
22 -2 3 -22 -3 -45 -12 -55 -22 -64 -19 -15 5 43 20 84 18 120 -7z m-165 -64
c0 -28 -1 -29 -27 -18 -52 22 -59 32 -27 39 51 11 54 10 54 -21z m220 -75 l0
-105 -27 -11 c-16 -6 -63 -24 -105 -39 l-78 -29 0 109 0 108 68 26 c37 14 77
26 89 26 12 0 25 5 28 10 18 28 25 0 25 -95z m-220 -70 c0 -58 -2 -105 -5
-105 -3 0 -21 10 -40 23 l-35 22 0 102 0 101 40 -19 40 -19 0 -105z"/>
</g>
</svg>
