<?xml version="1.0" standalone="no"?>
<!DOCTYPE svg PUBLIC "-//W3C//DTD SVG 20010904//EN"
 "http://www.w3.org/TR/2001/REC-SVG-20010904/DTD/svg10.dtd">
<svg version="1.0" xmlns="http://www.w3.org/2000/svg"
 width="30.000000pt" height="50.000000pt" viewBox="0 0 30.000000 50.000000"
 preserveAspectRatio="xMidYMid meet">

<g transform="translate(0.000000,50.000000) scale(0.100000,-0.100000)"
fill="#000000" stroke="none">
<path d="M0 275 l0 -225 125 0 125 0 0 225 0 225 -125 0 -125 0 0 -225z m238
161 c4 -69 -4 -96 -30 -96 -11 0 -27 8 -34 18 -12 16 -13 16 -19 0 -9 -23 -41
-23 -49 -2 -6 16 -8 16 -24 0 -22 -19 -43 -21 -60 -4 -13 13 -17 120 -5 132 4
3 54 5 112 4 l106 -3 3 -49z m-107 -106 c11 0 22 7 25 15 6 14 8 14 19 -1 8
-11 21 -15 38 -12 l27 5 0 -138 0 -139 -115 0 -115 0 0 147 c0 114 3 144 12
135 17 -17 43 -15 59 4 11 14 13 14 21 0 5 -9 18 -16 29 -16z"/>
<path d="M70 427 l54 -57 53 52 c29 29 53 55 53 58 0 2 -24 -19 -52 -48 l-53
-52 -55 53 -55 52 55 -58z"/>
</g>
</svg>
