<?xml version="1.0" standalone="no"?>
<!DOCTYPE svg PUBLIC "-//W3C//DTD SVG 20010904//EN"
 "http://www.w3.org/TR/2001/REC-SVG-20010904/DTD/svg10.dtd">
<svg version="1.0" xmlns="http://www.w3.org/2000/svg"
 width="2400.000000pt" height="2400.000000pt" viewBox="0 0 2400.000000 2400.000000"
 preserveAspectRatio="xMidYMid meet">
<g transform="translate(0.000000,2400.000000) scale(0.100000,-0.100000)"
fill="#000080" stroke="none">
<path d="M11162 21584 c-106 -183 -10803 -19015 -10808 -19029 -6 -13 560 -15
5462 -14 4592 0 5463 3 5429 14 -22 7 -96 31 -165 53 -664 210 -1298 566
-1870 1050 -148 124 -468 444 -592 592 -463 548 -797 1131 -1019 1778 -282
826 -358 1708 -219 2567 138 858 482 1666 1007 2371 276 369 656 757 1020
1040 1017 792 2276 1194 3548 1135 799 -38 1493 -201 2169 -512 666 -306 1283
-775 1734 -1319 119 -144 131 -156 100 -100 -14 25 -1309 2378 -2878 5230
-1569 2852 -2859 5191 -2865 5199 -11 11 -20 1 -53 -55z"/></g>
<g transform="translate(0.000000,2400.000000) scale(0.100000,-0.100000)"
fill="#FF0000" stroke="none">
<path d="M19702 12283 c-1067 -1501 -1712 -2418 -1710 -2430 2 -8 414 -554
917 -1214 838 -1098 916 -1198 933 -1187 20 14 3808 4988 3808 5001 0 4 -46 7
-102 7 -57 0 -841 14 -1743 30 -902 16 -1706 30 -1787 30 l-148 0 -168 -237z"/></g>
<g transform="translate(0.000000,2400.000000) scale(0.100000,-0.100000)"
fill="#000080" stroke="none">
<path d="M12679 10009 c-463 -31 -926 -211 -1309 -507 -113 -88 -315 -286
-405 -397 -288 -358 -462 -763 -527 -1230 -19 -136 -16 -465 6 -610 39 -261
110 -485 231 -730 409 -830 1258 -1365 2167 -1365 409 0 772 114 1138 358 379
252 685 567 1360 1397 187 231 436 530 502 604 26 30 48 58 48 62 0 3 -50 62
-112 130 -61 68 -279 325 -485 571 -206 247 -436 517 -512 600 -160 177 -406
419 -536 530 -353 297 -714 489 -1051 557 -90 18 -327 43 -378 40 -12 -1 -73
-5 -137 -10z"/>
<path d="M17424 5148 c-9 -18 -37 -67 -62 -108 -263 -439 -534 -782 -894
-1136 -437 -428 -878 -741 -1423 -1009 -258 -126 -406 -187 -690 -281 l-220
-73 3794 -1 c2087 0 3792 2 3790 4 -2 3 -144 50 -314 106 -1385 456 -2272 925
-3061 1616 -142 124 -617 604 -764 772 -68 78 -128 142 -132 142 -4 0 -15 -15
-24 -32z"/>
</g>
</svg>
